<svg id="Layer_5" enable-background="new 0 0 64 64" height="512" viewBox="0 0 64 64" width="512" xmlns="http://www.w3.org/2000/svg"><g><g><path d="m18 4v2h-2-4-2v-2c0-1.1.9-2 2-2h4c1.1 0 2 .9 2 2z" fill="#fcd770"/><path d="m18 14v6h-2-4-2v-6h2 4z" fill="#fcd770"/><path d="m18 32v4h-2-4-2v-4h2 4z" fill="#fcd770"/><path d="m18 6c1.1 0 2 .9 2 2v4c0 1.1-.9 2-2 2h-2v-8z" fill="#aab2bd"/><path d="m12 6v8h-2c-1.1 0-2-.9-2-2v-4c0-1.1.9-2 2-2z" fill="#aab2bd"/><path d="m12 20v12h-2c-1.1 0-2-.9-2-2v-8c0-1.1.9-2 2-2z" fill="#aab2bd"/><path d="m18 20c1.1 0 2 .9 2 2v8c0 1.1-.9 2-2 2h-2v-12z" fill="#aab2bd"/><path d="m12 6h4v8h-4z" fill="#ff826e"/><path d="m12 20h4v12h-4z" fill="#ff826e"/><path d="m36 4v2h-2-4-2v-2c0-1.1.9-2 2-2h4c1.1 0 2 .9 2 2z" fill="#aab2bd"/><path d="m36 14v6h-2-4-2v-6h2 4z" fill="#aab2bd"/><path d="m36 32v4h-2-4-2v-4h2 4z" fill="#aab2bd"/><path d="m36 6c1.1 0 2 .9 2 2v4c0 1.1-.9 2-2 2h-2v-8z" fill="#d3a06c"/><path d="m30 6v8h-2c-1.1 0-2-.9-2-2v-4c0-1.1.9-2 2-2z" fill="#d3a06c"/><path d="m30 20v12h-2c-1.1 0-2-.9-2-2v-8c0-1.1.9-2 2-2z" fill="#d3a06c"/><path d="m36 20c1.1 0 2 .9 2 2v8c0 1.1-.9 2-2 2h-2v-12z" fill="#d3a06c"/><g fill="#fcd770"><path d="m30 20h4v12h-4z"/><path d="m30 6h4v8h-4z"/><path d="m54 4v2h-2-4-2v-2c0-1.1.9-2 2-2h4c1.1 0 2 .9 2 2z"/><path d="m54 32v2c0 1.1-.9 2-2 2h-4c-1.1 0-2-.9-2-2v-2h2 4z"/></g><path d="m54 6c1.1 0 2 .9 2 2v22c0 1.1-.9 2-2 2h-2v-26z" fill="#aab2bd"/><path d="m48 6v26h-2c-1.1 0-2-.9-2-2v-22c0-1.1.9-2 2-2z" fill="#aab2bd"/><path d="m48 6h4v26h-4z" fill="#5cd6b3"/><path d="m16 36v23l-3 3h-1v-26z" fill="#e6e9ed"/><path d="m36 54-2 8h-4l-2-8 2-2v-16h4v16z" fill="#e6e9ed"/><path d="m52 36v24c0 .55-.22 1.05-.59 1.41-.36.37-.86.59-1.41.59-1.1 0-2-.9-2-2v-24z" fill="#e6e9ed"/></g><g><path d="m37 5.184v-1.184c0-1.654-1.346-3-3-3h-4c-1.654 0-3 1.346-3 3v1.184c-1.161.414-2 1.514-2 2.816v4c0 1.302.839 2.402 2 2.816v4.369c-1.161.414-2 1.514-2 2.816v8c0 1.302.839 2.402 2 2.816v4.183h2v14.586l-2.107 2.107 2.326 9.307h5.562l2.326-9.307-2.107-2.107v-14.586h2v-4.184c1.161-.414 2-1.514 2-2.816v-8c0-1.302-.839-2.402-2-2.816v-4.369c1.161-.414 2-1.514 2-2.816v-3.999c0-1.302-.839-2.402-2-2.816zm-6 25.816v-10h2v10zm-2-12v-4h6v4zm2-6v-6h2v6zm-1-10h4c.552 0 1 .448 1 1v1h-6v-1c0-.552.448-1 1-1zm-3 5c0-.552.448-1 1-1h1v6h-1c-.552 0-1-.448-1-1zm0 14c0-.552.448-1 1-1h1v10h-1c-.552 0-1-.448-1-1zm7.893 32.307-1.674 6.693h-2.438l-1.674-6.693 1.893-1.893v-15.414h2v15.414zm-5.893-19.307v-2h6v2zm8-5c0 .552-.448 1-1 1h-1v-10h1c.552 0 1 .448 1 1zm0-18c0 .552-.448 1-1 1h-1v-6h1c.552 0 1 .448 1 1z"/><path d="m19 5.184v-1.184c0-1.654-1.346-3-3-3h-4c-1.654 0-3 1.346-3 3v1.184c-1.161.414-2 1.514-2 2.816v4c0 1.302.839 2.402 2 2.816v4.369c-1.161.413-2 1.513-2 2.815v8c0 1.302.839 2.402 2 2.816v4.184h2v26h2.414l3.586-3.586v-22.414h2v-4.184c1.161-.414 2-1.514 2-2.816v-8c0-1.302-.839-2.402-2-2.816v-4.369c1.161-.414 2-1.514 2-2.816v-3.999c0-1.302-.839-2.402-2-2.816zm-6 25.816v-10h2v10zm-2-12v-4h6v4zm2-6v-6h2v6zm-1-10h4c.552 0 1 .448 1 1v1h-6v-1c0-.552.448-1 1-1zm-3 5c0-.552.448-1 1-1h1v6h-1c-.552 0-1-.448-1-1zm0 14c0-.552.448-1 1-1h1v10h-1c-.552 0-1-.448-1-1zm6 36.586-2 2v-23.586h2zm-4-23.586v-2h6v2zm8-5c0 .552-.448 1-1 1h-1v-10h1c.552 0 1 .448 1 1zm0-18c0 .552-.448 1-1 1h-1v-6h1c.552 0 1 .448 1 1z"/><path d="m55 5.184v-1.184c0-1.654-1.346-3-3-3h-4c-1.654 0-3 1.346-3 3v1.184c-1.161.414-2 1.514-2 2.816v22c0 1.302.839 2.402 2 2.816v1.184c0 1.302.839 2.402 2 2.816v23.184c0 1.654 1.346 3 3 3s3-1.346 3-3v-23.184c1.161-.414 2-1.514 2-2.816v-1.184c1.161-.414 2-1.514 2-2.816v-22c0-1.302-.839-2.402-2-2.816zm-6 25.816v-24h2v24zm-1-28h4c.552 0 1 .448 1 1v1h-6v-1c0-.552.448-1 1-1zm-3 5c0-.552.448-1 1-1h1v24h-1c-.552 0-1-.448-1-1zm5 53c-.552 0-1-.448-1-1v-23h2v23c0 .552-.448 1-1 1zm2-26h-4c-.552 0-1-.448-1-1v-1h6v1c0 .552-.448 1-1 1zm3-5c0 .552-.448 1-1 1h-1v-24h1c.552 0 1 .448 1 1z"/></g></g></svg>