<svg id="Layer_1" enable-background="new 0 0 510.415 510.415" height="512" viewBox="0 0 510.415 510.415" width="512" xmlns="http://www.w3.org/2000/svg"><g><g><path d="m230.133 428.873c-13.098.001-24.399-9.822-25.936-23.148l-11.041-95.749-90.731-16.451c-14.205-2.576-23.633-16.179-21.058-30.385 2.576-14.205 16.183-23.632 30.385-21.058l109.814 19.911c11.333 2.055 19.985 11.285 21.305 22.727l13.263 115.016c1.653 14.342-8.633 27.309-22.974 28.963-1.016.117-2.028.174-3.027.174z" fill="#55696e"/></g><g><path d="m318.101 189.018c-2.591-11.748-14.212-19.174-25.964-16.581l-65.244 14.388-2.575-8.546s-30.659-.098-45.856-1.175l12.542 41.627c3.3 10.951 14.468 17.433 25.549 14.988l84.966-18.737c11.749-2.591 19.173-14.216 16.582-25.964z" fill="#a5593f"/></g><g><path d="m224.319 178.279-14.467-48.015c-3.471-11.52-15.624-18.045-27.142-14.573-11.52 3.471-18.044 15.623-14.573 27.142l17.369 57.648z" fill="#f2c41b"/></g><g><path d="m391.73 228.617 91.717 5.483 2.878-16.198c.718-4.041-1.975-7.899-6.016-8.617l-167.238-29.717c-4.041-.718-7.898 1.976-8.616 6.016l-5.955 33.51z" fill="#a5c8cd"/><path d="m482.65 238.586.977-5.5-184.603-16.944-2.04 11.482c-.648 3.649.759 7.358 3.664 9.659l3.686 2.919c1.603 1.269 3.847 1.341 5.528.177l8.423-5.831c1.681-1.164 3.925-1.091 5.528.178l8.031 6.36c1.603 1.269 3.847 1.342 5.528.178l8.425-5.831c1.681-1.163 3.925-1.091 5.528.178l8.035 6.362c1.603 1.269 3.846 1.341 5.528.178l8.426-5.832c1.681-1.163 3.925-1.091 5.528.178l8.035 6.362c1.603 1.269 3.846 1.341 5.528.178l8.428-5.832c1.681-1.163 3.925-1.091 5.527.178l8.037 6.362c1.603 1.269 3.846 1.341 5.527.178l8.426-5.832c1.681-1.163 3.925-1.091 5.528.177l8.038 6.363c1.602 1.269 3.846 1.341 5.527.178l8.432-5.834c1.681-1.163 3.924-1.091 5.527.178l8.176 6.127c1.718 1.287 4.066 1.332 5.831.111l5.168-3.575c1.093-.757 1.84-1.92 2.073-3.23z" fill="#c8e6eb"/><path d="m315.8 234.809 8.627-48.555c1.582-8.906-4.344-17.396-13.252-18.979l-36.327-6.456c-8.886-1.579-17.4 4.366-18.979 13.252l-8.628 48.555c-1.583 8.906 4.343 17.396 13.251 18.979l36.327 6.455c8.909 1.584 17.397-4.342 18.981-13.251zm-16.548-.428-25.874-4.598 9.493-53.424 25.874 4.598c.877.156 1.375.705 1.594 1.019s.563.971.407 1.848l-8.628 48.555c-.156.878-.706 1.376-1.019 1.595-.313.218-.97.562-1.847.407z" fill="#e64937"/></g><g><g><g><path d="m456.79 510.415c-3.782 0-7.567-1.421-10.485-4.274l-230.801-225.649c-5.923-5.792-6.031-15.288-.239-21.212 5.792-5.923 15.289-6.031 21.212-.239l230.8 225.649c5.924 5.792 6.03 15.288.239 21.212-2.938 3.005-6.831 4.513-10.726 4.513z" fill="#783c28"/></g></g><g><g><path d="m225.991 510.415c-3.896 0-7.788-1.508-10.727-4.514-5.792-5.924-5.684-15.42.239-21.212l230.801-225.649c5.925-5.792 15.422-5.684 21.212.239 5.791 5.924 5.685 15.42-.239 21.212l-230.801 225.65c-2.918 2.852-6.703 4.274-10.485 4.274z" fill="#a55a3c"/></g></g></g><g><path d="m20.539 509.569c-13.973-3.631-22.356-17.902-18.725-31.875l54.42-209.414c3.632-13.973 17.903-22.356 31.875-18.726 13.973 3.631 22.356 17.902 18.726 31.875l-54.42 209.414c-3.632 13.971-17.899 22.357-31.876 18.726z" fill="#748488"/></g><path d="m123.006 284.731-66.387-18.504 42.014-150.731c4.523-16.225 21.342-25.712 37.567-21.19l52.391 14.603c16.225 4.523 25.712 21.342 21.19 37.567l-29.538 105.971c-6.891 24.72-32.516 39.174-57.237 32.284z" fill="#ffda52"/><circle cx="178.376" cy="45.159" fill="#ba6746" r="45.147"/><g><path d="m465.948 448.673h-249.115c-8.284 0-15-6.716-15-15s6.716-15 15-15h249.115c8.284 0 15 6.716 15 15s-6.716 15-15 15z" fill="#a55a3c"/></g><g><path d="m498.814 287.673h-314.847c-5.873 0-10.634-4.761-10.634-10.634v-18.733c0-5.873 4.761-10.634 10.634-10.634h314.848c5.873 0 10.634 4.761 10.634 10.634v18.733c-.001 5.873-4.762 10.634-10.635 10.634z" fill="#783c28"/></g><g><g><path d="m260.378 208.174-74.107-13.642-9.518-22.549-25.922-5.356-14.133 22.405 14.116 33.383c2.872 6.707 8.908 11.53 16.083 12.851l85.594 15.755c11.842 2.181 23.192-5.663 25.367-17.48 2.178-11.833-5.648-23.189-17.48-25.367z" fill="#ba6746"/></g></g><g><g><path d="m176.753 171.983-22.081-52.313c-4.735-11.06-17.541-16.195-28.599-11.454-11.06 4.735-16.189 17.539-11.454 28.599l22.08 52.216z" fill="#f2c41b"/></g></g></g></svg>