<svg height="512" viewBox="0 0 512 512" width="512" xmlns="http://www.w3.org/2000/svg"><g id="Filled_outline" data-name="Filled outline"><path d="m312 248h120a190.53 190.53 0 0 0 32-105.689v-22.311h-184v22.311a190.53 190.53 0 0 0 32 105.689z" fill="#f27900"/><path d="m483.84 302.24a39.974 39.974 0 0 0 -35.84-22.24h-40a8 8 0 0 1 -8-8v-56h-64v56a8 8 0 0 1 -8 8h-47.33a39.989 39.989 0 0 0 -39.19 32.01l-41.48 183.99h55.72l25.41-85.43a60.473 60.473 0 0 0 14.18 37.43l.58 48h160.11a32 32 0 0 0 32-32v-144a39.649 39.649 0 0 0 -4.16-17.76z" fill="#fec9a3"/><path d="m488 320v144a32 32 0 0 1 -32 32h-126c51.26-31.94 119.27-91.38 153.84-193.76a39.649 39.649 0 0 1 4.16 17.76z" fill="#fec093"/><path d="m440 448v48h-144l-.69-48c-19.79-23.56-18.46-57.28.69-80v-88h24l7.21 25.23a42.421 42.421 0 0 0 81.58 0l7.21-25.23h24v88c.66.78 1.3 1.58 1.91 2.39a62.071 62.071 0 0 1 -1.91 77.61z" fill="#7eb457"/><path d="m400 248.493v-32.493h-64v32.263a68.743 68.743 0 0 0 27.208 7.582 71.865 71.865 0 0 0 36.792-7.352z" fill="#feb784"/><path d="m440 448v48h-122.45c40.91-25.69 88.75-65.74 124.36-125.61a62.071 62.071 0 0 1 -1.91 77.61z" fill="#77ad50"/><path d="m400.176 380.647a17.018 17.018 0 0 0 -22.915 5.1l-57.261 88.207 5.3 22.046 22.915-5.1 57.261-88.211a15.649 15.649 0 0 0 -5.3-22.042z" fill="#3d4d63"/><path d="m416 448-32-16-40 8v56h112a32 32 0 0 0 32-32v-24z" fill="#fec9a3"/><path d="m440 104v64a72 72 0 0 1 -67.75 71.88 73.77 73.77 0 0 1 -9.04-.04c-38.27-2.47-67.21-35.96-67.21-74.31v-61.53a72 72 0 1 1 144 0z" fill="#fec9a3"/><path d="m440 104v64a72 72 0 0 1 -67.75 71.88 71.99 71.99 0 0 0 38.75-63.88v-88a71.775 71.775 0 0 0 -21.09-50.91c-.85-.85-1.71-1.67-2.6-2.47a72.033 72.033 0 0 1 52.69 69.38z" fill="#fec093"/><path d="m464 120v32h-24v-32a86.3 86.3 0 0 1 -26.62-20.66 83.273 83.273 0 0 1 -5.38-6.89 86.176 86.176 0 0 1 -11.31-22.39l-4.69-14.06-16.02 51.26a121.609 121.609 0 0 1 -103.98 84.74v-72a96 96 0 0 1 192 0z" fill="#f98500"/><path d="m464 120v32h-24v-32a86.3 86.3 0 0 1 -26.62-20.66 83.273 83.273 0 0 1 -5.38-6.89v-20.45a71.662 71.662 0 0 0 -15.72-44.9 96.072 96.072 0 0 1 71.72 92.9z" fill="#f27900"/><path d="m440 120h8a24 24 0 0 1 24 24 24 24 0 0 1 -24 24h-8a0 0 0 0 1 0 0v-48a0 0 0 0 1 0 0z" fill="#feb784"/><path d="m296 256v144a24.006 24.006 0 0 1 -24 24h-224c-.16 0-.32 0-.47-.01a24 24 0 0 1 -23.53-23.99v-144a24.006 24.006 0 0 1 24-24h224a24.006 24.006 0 0 1 24 24z" fill="#e0e0de"/><path d="m296 256v144a24.006 24.006 0 0 1 -24 24h-224c-.16 0-.32 0-.47-.01 68.89-28.67 170.2-86.57 223.02-191.99h1.45a24.006 24.006 0 0 1 24 24z" fill="#d6d6d4"/><path d="m128 456h96v32h-96z" fill="#b0b0ae"/><path d="m176 488h-80l32-128h64z" fill="#bfbfbd"/><path d="m448 272h-40v-16h24a8 8 0 0 0 6.667-3.578 201.307 201.307 0 0 0 24.83-52.584 199.2 199.2 0 0 0 6.963-33.071 31.924 31.924 0 0 0 1.54-43.9v-2.867a104 104 0 0 0 -208 0v72a8 8 0 0 0 8 8c.25 0 .5-.012.755-.036q3.751-.356 7.511-.953a196.81 196.81 0 0 0 13.4 33.464 31.872 31.872 0 0 0 -21.666-8.475h-224a32.036 32.036 0 0 0 -32 32v144a32.036 32.036 0 0 0 32 32h53.754l-13.515 54.06a8 8 0 0 0 7.761 9.94h128a8 8 0 0 0 8-8v-32a8 8 0 0 0 -8-8h-2.114l3.28-16h41.315l-18.156 61.743 15.35 4.514 17.011-57.851a67.955 67.955 0 0 0 6.636 10.462l.678 45.252 16-.24-.72-48a8.012 8.012 0 0 0 -1.868-5.02 51.346 51.346 0 0 1 -9.719-17.631 31.789 31.789 0 0 0 12.307-25.229v-112h9.966l5.541 19.394a50.409 50.409 0 0 0 96.985 0l5.542-19.4h9.966v80a8 8 0 0 0 1.879 5.151 53.789 53.789 0 0 1 8.4 55.88l-24.813 2.757-20.026-10.013 14.713-22.7a23.4 23.4 0 0 0 3.24-18.135 23.884 23.884 0 0 0 -11.126-15.167 25.112 25.112 0 0 0 -33.694 7.628l-57.279 88.161a7.994 7.994 0 0 0 -1.073 6.218l5.28 22.08a7.992 7.992 0 0 0 9.516 5.95l11.052-2.456a7.972 7.972 0 0 0 5.931 2.652h112a40.045 40.045 0 0 0 40-40v-136a48.055 48.055 0 0 0 -48-48zm-120-32h-11.655a183.3 183.3 0 0 1 -14.759-28.554 81.127 81.127 0 0 0 26.414 25.491zm11.641-14.883a65.856 65.856 0 0 1 -30.75-34.117 130.2 130.2 0 0 0 74.746-81.339l8.85-28.364a93.889 93.889 0 0 0 39.513 43.503v43.2a64.04 64.04 0 0 1 -68.277 63.857 61.077 61.077 0 0 1 -24.082-6.74zm124.359-81.117a16.019 16.019 0 0 1 -16 16v-32a16.019 16.019 0 0 1 16 16zm-15.813 51.187a185.116 185.116 0 0 1 -20.539 44.813h-19.648v-2.743a79.4 79.4 0 0 0 39.6-61.257h.4a32.14 32.14 0 0 0 4.916-.378 180.288 180.288 0 0 1 -4.729 19.565zm-168.187-75.187a87.987 87.987 0 0 1 175.7-7.058 31.987 31.987 0 0 0 -7.7-.942h-6.015a77.692 77.692 0 0 1 -37.68-44.463l-4.72-14.08a8 8 0 0 0 -15.222.16l-16 51.276a113.637 113.637 0 0 1 -88.363 77.943zm-173.754 360 28-112h48.692l-14 112zm109.754 0h-30.938l2-16h28.938zm-10.446-32h-16.492l2-16h17.772zm82.446-48a16 16 0 0 1 -9.1 14.445 14.81 14.81 0 0 1 -3.31 1.114 15.977 15.977 0 0 1 -3.59.441h-78.938l6.876-55.008a8 8 0 0 0 -7.938-8.992h-64a8 8 0 0 0 -7.761 6.06l-14.485 57.94h-57.754a16.019 16.019 0 0 1 -16-16v-144a16.019 16.019 0 0 1 16-16h224a16.019 16.019 0 0 1 16 16zm16-128v-16a32.009 32.009 0 0 0 -.719-6.734c.677 1.06 1.36 2.116 2.058 3.165a8 8 0 0 0 6.661 3.569h16v16zm97.1 31.038a34.234 34.234 0 0 1 -12.319 18.02 34.466 34.466 0 0 1 -53.888-18.058l-4.35-15.224a16.011 16.011 0 0 0 13.457-15.776v-27.788a76.212 76.212 0 0 0 18.671 3.61q2.686.178 5.364.178a79.774 79.774 0 0 0 23.965-3.673v27.673a16.011 16.011 0 0 0 13.457 15.778zm46.9 62.141v-77.179a32.036 32.036 0 0 1 32 32v104.84l-20.089 2.232a69.7 69.7 0 0 0 -11.911-61.893zm-64.01 16.936a8.97 8.97 0 0 1 12.043-2.622 8 8 0 0 1 3.767 5.042 7.534 7.534 0 0 1 -1.073 5.833l-16.777 25.883-23.147 4.63zm-55.411 85.285 7.421-11.422v21.444l-4.771 1.06zm127.421 12.6h-104v-41.441l30.877-6.176 29.545 14.772a8.006 8.006 0 0 0 4.461.8l63.117-7.017v15.062a24.027 24.027 0 0 1 -24 24z"/><path d="m392 176h-16a8 8 0 0 1 -16 0h-16a24 24 0 0 0 48 0z"/><path d="m404 152a12 12 0 1 0 -12-12 12.013 12.013 0 0 0 12 12z"/><path d="m48 256h32v16h-32z"/><path d="m96 256h32v16h-32z"/><path d="m144 256h32v16h-32z"/><path d="m192 256h32v16h-32z"/><path d="m240 256h32v16h-32z"/></g></svg>