<svg id="icons" enable-background="new 0 0 64 64" height="512" viewBox="0 0 64 64" width="512" xmlns="http://www.w3.org/2000/svg"><g><g><path d="m42.52 18.5v4.01h-1.01-29.99-1v-4.01h.99 30z" fill="#f6bb42"/></g><g><path d="m22.52 4.02v-1.98c1.271-.35 2.61-.53 3.99-.53 1.391 0 2.73.19 4.01.54v1.98c6.34 1.76 10.99 7.57 10.99 14.46v.01h-30v-.01c0-6.91 4.66-12.72 11.01-14.47z" fill="#edab37"/></g><g><path d="m54.49 43.5v18.99h-5.98v-8c0-.19-.01-.37-.02-.55v-16.44c0 3.31 2.69 6 6 6z" fill="#f5f7fa"/></g><g><path d="m26.51 45.49 3 1.66-2 2.34h-2l-2-2.34v-.01z" fill="#ed5565"/></g><g><path d="m26.51 45.49-3 1.649-2.45 1.351-1.55-4v-3.73c2.09 1.101 4.471 1.73 7 1.73 2.53 0 4.91-.63 7-1.73v3.73l-1.56 4-2.44-1.34z" fill="#f5f7fa"/></g><g><path d="m48.49 53.94v8.55h-18.98l6-8-2-2 4-4-2-2h5c4.23 0 7.7 3.29 7.98 7.45z" fill="#545c66"/></g><g><path d="m40.51 46.49h-4.004c4.23 0 7.7 3.29 7.98 7.45v8.55h4.004v-8.55c-.28-4.16-3.75-7.45-7.98-7.45z" fill="#434a54"/></g><g><path d="m31.95 48.49-2.33 6-2.11-5 2-2.34z" fill="#e6e9ed"/></g><g><path d="m54.99 34.5c.83 0 1.51.67 1.51 1.5s-.68 1.5-1.51 1.5h-.49v3h-.01c-1.65 0-3-1.35-3-3 0-1.66 1.35-3 3-3z" fill="#e6e9ed"/></g><g><path d="m23.39 54.48 3.12 8.01h-3l-6-8 2-2-4-4 2-2 2-2 1.55 4z" fill="#656d78"/></g><g><path d="m23.51 47.15 2 2.34-2.12 4.99-2.33-5.99 2.45-1.35z" fill="#e6e9ed"/></g><g><path d="m41.51 22.51v4.98c0 5.76-3.24 10.76-8 13.27-2.09 1.101-4.47 1.73-7 1.73-2.529 0-4.91-.63-7-1.73-4.76-2.51-8-7.51-8-13.27l.01-4.98z" fill="#eac6bb"/></g><g><path d="m37.506 22.51v4.98c0 5.76-3.24 10.76-8 13.27-1.528.805-3.214 1.354-4.998 1.594.655.088 1.322.137 2.002.137 2.53 0 4.91-.63 7-1.73 4.76-2.51 8-7.51 8-13.27v-4.98h-4.004z" fill="#d3b1a9"/></g><g><path d="m35.51 46.49 2 2-4 4 2 2-6 8h-3l3.11-8 2.33-6 1.56-4z" fill="#656d78"/></g><g><path d="m56.5 36c0-.83-.68-1.5-1.51-1.5h-.5c-1.65 0-3 1.34-3 3 0 1.65 1.35 3 3 3h.01v-3h.49c.83 0 1.51-.67 1.51-1.5zm2.99 0v26.49h-5v-18.99c-3.311 0-6-2.69-6-6 0-3.32 2.689-6 6-6h.5c2.49 0 4.5 2.01 4.5 4.5z" fill="#e6e9ed"/></g><g><path d="m27.51 49.49 2.11 5-3.11 8-3.12-8.01 2.12-4.99z" fill="#da4453"/></g><g><path d="m17.51 54.49 6 8h-19v-8c0-4.42 3.57-8 8-8h5l-2 2 4 4z" fill="#545c66"/></g><g><path d="m22.52 7.51h8v-5.46c-1.28-.35-2.62-.54-4.01-.54-1.38 0-2.72.181-3.99.53z" fill="#f6bb42"/></g></g><g><g><path d="m4.506 55.494c-.553 0-1-.447-1-1 0-4.964 4.038-9.002 9.002-9.002.553 0 1 .447 1 1s-.447 1-1 1c-3.861 0-7.002 3.141-7.002 7.002 0 .553-.447 1-1 1z"/></g><g><path d="m48.506 55.493c-.553 0-1-.447-1-1 0-3.859-3.141-7-7-7-.553 0-1-.447-1-1s.447-1 1-1c4.963 0 9 4.037 9 9 0 .553-.447 1-1 1z"/></g><g><path d="m12.508 47.492c-.552 0-1-.447-1-1 0-.552.447-1 1-1l4.999-.001c.552 0 1 .447 1 1 0 .552-.447 1-1 1z"/></g><g><path d="m4.507 63.49c-.552 0-1-.447-1-1l-.001-7.996c0-.552.447-1 1-1 .552 0 1 .447 1 1l.001 7.996c0 .552-.447 1-1 1z"/></g><g><path d="m48.506 63.49c-.553 0-1-.447-1-1v-7.997c0-.553.447-1 1-1s1 .447 1 1v7.997c0 .553-.447 1-1 1z"/></g><g><path d="m19.506 45.491c-.553 0-1-.447-1-1v-3.729c0-.553.447-1 1-1s1 .447 1 1v3.729c0 .553-.447 1-1 1z"/></g><g><path d="m33.506 45.491c-.553 0-1-.447-1-1v-3.729c0-.553.447-1 1-1s1 .447 1 1v3.729c0 .553-.447 1-1 1z"/></g><g><path d="m26.506 43.492c-8.822 0-16-7.178-16-16 0-.553.447-1 1-1s1 .447 1 1c0 7.72 6.28 14 14 14s14-6.28 14-14c0-.553.447-1 1-1s1 .447 1 1c0 8.822-7.178 16-16 16z"/></g><g><path d="m11.506 28.492c-.001 0-.002 0-.003 0-.553-.002-.999-.451-.997-1.003l.016-4.985c.002-.552.449-.997 1-.997h.003c.553.002.999.451.997 1.003l-.016 4.985c-.002.552-.449.997-1 .997z"/></g><g><path d="m41.506 28.492c-.553 0-1-.447-1-1v-4.985c0-.553.447-1 1-1s1 .447 1 1v4.985c0 .553-.447 1-1 1z"/></g><g><path d="m21.063 49.493c-.353 0-.694-.187-.877-.517-.267-.484-.091-1.093.393-1.359l5.443-3.002c.484-.266 1.092-.09 1.359.393.267.484.091 1.093-.393 1.359l-5.443 3.002c-.152.084-.318.124-.482.124z"/></g><g><path d="m31.948 49.493c-.163 0-.329-.04-.482-.124l-5.443-3.002c-.483-.267-.659-.875-.393-1.359.268-.482.875-.658 1.359-.393l5.443 3.002c.483.267.659.875.393 1.359-.182.331-.524.517-.877.517z"/></g><g><g><path d="m15.506 49.493c-.256 0-.512-.098-.707-.293-.391-.391-.391-1.023 0-1.414l4-4.002c.391-.391 1.023-.391 1.414 0s.391 1.023 0 1.414l-4 4.002c-.195.196-.451.293-.707.293z"/></g><g><path d="m19.506 53.491c-.256 0-.512-.098-.707-.293l-4-3.998c-.391-.391-.391-1.023 0-1.414s1.023-.391 1.414 0l4 3.998c.391.391.391 1.023 0 1.414-.195.196-.451.293-.707.293z"/></g><g><path d="m17.506 55.491c-.256 0-.512-.098-.707-.293-.391-.391-.391-1.023 0-1.414l2-2c.391-.391 1.023-.391 1.414 0s.391 1.023 0 1.414l-2 2c-.195.196-.451.293-.707.293z"/></g><g><path d="m23.507 63.491c-.305 0-.604-.138-.801-.4l-6-8c-.332-.441-.242-1.068.2-1.399.441-.332 1.067-.243 1.399.2l6 8c.332.441.242 1.068-.2 1.399-.179.135-.389.2-.598.2z"/></g><g><path d="m26.506 63.491c-.4 0-.778-.242-.932-.638l-7-18c-.2-.515.055-1.094.569-1.294s1.095.055 1.294.569l7 18c.2.515-.055 1.094-.569 1.294-.119.048-.241.069-.362.069z"/></g></g><g><g><path d="m37.506 49.493c-.256 0-.512-.098-.707-.293l-4-4.002c-.391-.391-.391-1.023 0-1.414s1.023-.391 1.414 0l4 4.002c.391.391.391 1.023 0 1.414-.195.196-.451.293-.707.293z"/></g><g><path d="m33.506 53.491c-.256 0-.512-.098-.707-.293-.391-.391-.391-1.023 0-1.414l4-3.998c.391-.391 1.023-.391 1.414 0s.391 1.023 0 1.414l-4 3.998c-.195.196-.451.293-.707.293z"/></g><g><path d="m35.506 55.491c-.256 0-.512-.098-.707-.293l-2-2c-.391-.391-.391-1.023 0-1.414s1.023-.391 1.414 0l2 2c.391.391.391 1.023 0 1.414-.195.196-.451.293-.707.293z"/></g><g><path d="m29.505 63.491c-.209 0-.419-.065-.599-.2-.442-.331-.532-.958-.2-1.399l6-8c.332-.442.958-.53 1.399-.2.442.331.532.958.2 1.399l-6 8c-.196.263-.495.4-.8.4z"/></g><g><path d="m26.506 63.491c-.121 0-.243-.021-.362-.068-.515-.2-.77-.779-.569-1.294l7-18c.2-.515.781-.771 1.294-.569.515.2.77.779.569 1.294l-7 18c-.154.395-.532.637-.932.637z"/></g></g><g><path d="m40.506 47.493h-5c-.553 0-1-.447-1-1s.447-1 1-1h5c.553 0 1 .447 1 1s-.447 1-1 1z"/></g><g><path d="m23.395 55.491c-.13 0-.262-.025-.389-.079-.509-.215-.747-.802-.532-1.31l2.111-4.998c.215-.51.802-.747 1.31-.532.509.215.747.802.532 1.31l-2.111 4.998c-.162.382-.532.611-.921.611z"/></g><g><path d="m29.617 55.491c-.39 0-.76-.229-.921-.611l-2.111-5c-.215-.509.023-1.095.532-1.31.508-.215 1.095.023 1.31.532l2.111 5c.215.509-.023 1.095-.532 1.31-.127.054-.259.079-.389.079z"/></g><g><path d="m27.506 50.493h-2c-.553 0-1-.447-1-1s.447-1 1-1h2c.553 0 1 .447 1 1s-.447 1-1 1z"/></g><g><path d="m27.506 50.493c-.229 0-.46-.078-.648-.239-.421-.357-.471-.989-.112-1.409l2-2.348c.358-.422.989-.472 1.409-.112.421.357.471.989.112 1.409l-2 2.348c-.198.232-.479.351-.761.351z"/></g><g><path d="m25.506 50.493c-.282 0-.563-.119-.761-.352l-2-2.348c-.358-.42-.309-1.052.112-1.409.421-.359 1.052-.31 1.409.112l2 2.348c.358.42.309 1.052-.112 1.409-.188.162-.419.24-.648.24z"/></g><g><g><path d="m41.506 19.489c-.553 0-1-.447-1-1 0-6.271-4.215-11.818-10.25-13.492-.532-.147-.844-.699-.696-1.231s.699-.842 1.231-.696c6.897 1.913 11.715 8.254 11.715 15.42 0 .552-.447.999-1 .999z"/></g><g><path d="m11.506 19.489c-.553 0-1-.447-1-1 0-7.185 4.832-13.529 11.752-15.429.531-.148 1.083.165 1.229.699.146.532-.166 1.083-.699 1.229-6.054 1.663-10.281 7.215-10.281 13.501-.001.553-.448 1-1.001 1z"/></g><g><path d="m30.524 3.052c-.089 0-.179-.012-.268-.036-2.424-.672-5.055-.672-7.471-.01-.526.144-1.082-.166-1.229-.699-.146-.532.166-1.083.699-1.229 2.761-.762 5.765-.758 8.533.01.532.147.845.698.697 1.23-.121.444-.523.734-.961.734z"/></g><g><path d="m42.521 23.507h-31.999c-.553 0-1-.447-1-1v-4.002c0-.553.447-1 1-1h31.999c.553 0 1 .447 1 1v4.002c0 .553-.447 1-1 1zm-30.999-2h29.999v-2.002h-29.999z"/></g><g><path d="m22.521 8.507c-.553 0-1-.447-1-1v-5.465c0-.553.447-1 1-1s1 .447 1 1v5.465c0 .553-.447 1-1 1z"/></g><g><path d="m30.523 8.507c-.553 0-1-.447-1-1v-5.455c0-.553.447-1 1-1s1 .447 1 1v5.455c0 .553-.447 1-1 1z"/></g></g><g><g><path d="m54.494 44.498c-3.859 0-7-3.141-7-7s3.141-7 7-7c.553 0 1 .447 1 1s-.447 1-1 1c-2.757 0-5 2.243-5 5s2.243 5 5 5c.553 0 1 .447 1 1s-.447 1-1 1z"/></g><g><path d="m54.994 41.498c-.553 0-1-.447-1-1s.447-1 1-1c1.93 0 3.5-1.57 3.5-3.5s-1.57-3.5-3.5-3.5c-.553 0-1-.447-1-1s.447-1 1-1c3.032 0 5.5 2.468 5.5 5.5s-2.468 5.5-5.5 5.5z"/></g><g><path d="m54.994 38.502c-.553 0-1-.447-1-1s.447-1 1-1c.276 0 .502-.226.502-.502s-.226-.502-.502-.502c-.553 0-1-.447-1-1s.447-1 1-1c1.38 0 2.502 1.122 2.502 2.502s-1.122 2.502-2.502 2.502z"/></g><g><path d="m54.494 41.498c-2.206 0-4-1.794-4-4s1.794-4 4-4c.553 0 1 .447 1 1s-.447 1-1 1c-1.103 0-2 .897-2 2s.897 2 2 2c.553 0 1 .447 1 1s-.447 1-1 1z"/></g><g><path d="m54.494 63.491c-.553 0-1-.447-1-1v-18.993c0-.553.447-1 1-1s1 .447 1 1v18.993c0 .553-.447 1-1 1z"/></g><g><path d="m48.494 63.49c-.553 0-1-.447-1-1v-24.992c0-.553.447-1 1-1s1 .447 1 1v24.992c0 .553-.447 1-1 1z"/></g><g><path d="m54.496 41.498c-.553 0-1-.447-1-1v-2.996c0-.553.447-1 1-1s1 .447 1 1v2.996c0 .553-.447 1-1 1z"/></g><g><path d="m54.994 38.502h-.498c-.553 0-1-.447-1-1s.447-1 1-1h.498c.553 0 1 .447 1 1s-.447 1-1 1z"/></g><g><path d="m54.994 41.498h-.5c-.553 0-1-.447-1-1s.447-1 1-1h.5c.553 0 1 .447 1 1s-.447 1-1 1z"/></g><g><path d="m54.994 35.498h-.5c-.553 0-1-.447-1-1s.447-1 1-1h.5c.553 0 1 .447 1 1s-.447 1-1 1z"/></g><g><path d="m59.494 63.49c-.553 0-1-.447-1-1v-26.492c0-.553.447-1 1-1s1 .447 1 1v26.492c0 .553-.447 1-1 1z"/></g><g><path d="m54.994 32.498h-.5c-.553 0-1-.447-1-1s.447-1 1-1h.5c.553 0 1 .447 1 1s-.447 1-1 1z"/></g></g></g></svg>