<svg id="Layer_1" height="512" viewBox="0 0 512 512" width="512" xmlns="http://www.w3.org/2000/svg" data-name="Layer 1"><path d="m496.54 201.83a60.292 60.292 0 1 1 -54.35-53.93l.26.26-32.81 32.82 8.44 45.44 45.43 8.43z" fill="#ccd3df"/><path d="m406.58 424.78a41.81 41.81 0 1 1 -18.06 34.4 41.531 41.531 0 0 1 18.06-34.4zm44.7 34.4-10.47-18.13h-20.94l-10.47 18.13 10.47 18.14h20.94z" fill="#6d7486"/><path d="m406.58 260.27v-.01a60.375 60.375 0 0 0 47.51 5.38v158.84l-.14.2a41.791 41.791 0 0 0 -47.37.1" fill="#b0b5ca"/><path d="m349.87 378.27v122.73h-59.84v-198.68a78.125 78.125 0 0 1 59.84 75.95z" fill="#a0eaea"/><path d="m240.35 282.89-.58 1.08v47.71a57.26 57.26 0 1 1 -114.52 0v-47.57l-2.22 1.11a221.948 221.948 0 0 1 -48.05 17.1v198.68h215.05v-198.68a206.4 206.4 0 0 1 -49.68-19.43z" fill="#fe8700"/><path d="m271.36 114.41h-177.7a11.605 11.605 0 0 0 0 23.21h177.7a11.605 11.605 0 0 0 0-23.21z" fill="#edb740"/><path d="m270.87 113.46v.95h-176.72v-.8c0-37.31 20.65-70 50.5-85.13v11.3a54.568 54.568 0 0 0 37.67 51.88l1.25.4a54.54 54.54 0 0 0 36.8-51.59v-12c29.85 15.1 50.5 47.68 50.5 84.99z" fill="#ffdb00"/><path d="m249.99 137.62.24 27.35h3.32a12.449 12.449 0 0 1 3.53.51 114.2 114.2 0 0 0 7.05-27.86z" fill="#6d7486"/><path d="m257.08 165.48a12.449 12.449 0 0 0 -3.53-.51h-3.32l-.24-27.35h-132.03l-.24 27.35h-3.32a12.21 12.21 0 0 0 -5.13 1.11 12.425 12.425 0 0 0 5.13 23.74h3.32l5.22 33.34a61.835 61.835 0 0 0 10.69 26.24 62.409 62.409 0 0 0 21.28 18.7 61.735 61.735 0 0 0 58.13 0 61.1 61.1 0 0 0 9.99-6.65 61.747 61.747 0 0 0 21.98-38.29l5.22-33.34h3.32a12.427 12.427 0 0 0 3.53-24.34z" fill="#ffd8b7"/><path d="m240.35 282.89-.58 1.08v47.71a57.26 57.26 0 1 1 -114.52 0v-47.57l16.9-8.49v23.5a53 53 0 0 0 80.88 0v-25.74l15.58 8.57c.58.32 1.16.63 1.74.94z" fill="#a0eaea"/><path d="m213.04 268.1a61.735 61.735 0 0 1 -58.13 0 60.932 60.932 0 0 1 -12.48-8.81l-.28.31v39.52a53 53 0 0 0 80.88 0v-37.67a61.1 61.1 0 0 1 -9.99 6.65z" fill="#efc597"/><path d="m220.37 28.47v12a54.54 54.54 0 0 1 -36.8 51.59l-1.25-.4a54.568 54.568 0 0 1 -37.67-51.88v-11.3a82.539 82.539 0 0 1 16.24-6.22l-1.17-11.26h45.58l-1.17 11.26a82.507 82.507 0 0 1 16.24 6.21z" fill="#edb740"/><path d="m100.18 137.62h-.01a87.518 87.518 0 0 0 5.06 18.31l4.04 10.15a12.21 12.21 0 0 1 5.13-1.11h3.32l.24-27.35z" fill="#6d7486"/><path d="m74.98 302.32v198.68h-59.83v-122.73a78.127 78.127 0 0 1 59.83-75.95z" fill="#a0eaea"/><path d="m241.85 433.13v67.87h-108.71v-68.07a116.943 116.943 0 0 0 108.71.2z" fill="#ffdb00"/><path d="m124.15 113.61a97.72 97.72 0 0 1 21.83-61.893 54.53 54.53 0 0 1 -1.33-11.937v-11.3c-29.85 15.13-50.5 47.82-50.5 85.13v.8h30z" fill="#fffc8f"/><path d="m184.91 268.1a62.409 62.409 0 0 1 -21.28-18.7 61.835 61.835 0 0 1 -10.69-26.24l-3.413-21.795a145.83 145.83 0 0 1 -1.753-23.23l.186-40.515h-30l-.24 27.35h-3.32a12.21 12.21 0 0 0 -5.13 1.11 12.435 12.435 0 0 0 -7.29 11.289c-.011 6.85 5.95 12.451 12.8 12.451h2.94l5.22 33.34a61.835 61.835 0 0 0 10.69 26.24 62.409 62.409 0 0 0 21.28 18.7 61.7 61.7 0 0 0 44.069 5.416 61.968 61.968 0 0 1 -14.069-5.416z" fill="#f4c698"/><path d="m145.98 51.717a89.356 89.356 0 0 1 28.67-23.237 82.539 82.539 0 0 1 16.24-6.22l-1.17-11.26h-30l1.17 11.26a82.539 82.539 0 0 0 -16.24 6.22v11.3a54.53 54.53 0 0 0 1.33 11.937z" fill="#fc6"/><path d="m112.06 126.02a11.608 11.608 0 0 1 11.6-11.61h-30a11.605 11.605 0 0 0 0 23.21h30a11.6 11.6 0 0 1 -11.6-11.6z" fill="#fc6"/><path d="m74.98 316.887v-14.567a78.127 78.127 0 0 0 -59.83 75.95v122.73h30v-122.73a77.95 77.95 0 0 1 29.83-61.383z" fill="#74c4c2"/><g fill="#284268"><path d="m440.806 435.05h-20.939a6 6 0 0 0 -5.2 3l-10.467 18.134a6 6 0 0 0 0 6l10.469 18.133a6 6 0 0 0 5.2 3h20.939a6 6 0 0 0 5.2-3l10.47-18.133a6 6 0 0 0 0-6l-10.478-18.134a6 6 0 0 0 -5.194-3zm-3.464 36.267h-14.011l-7-12.133 7-12.134h14.011l7 12.134z"/><path d="m291.433 296.482a202.222 202.222 0 0 1 -49.933-19.794l-12.471-6.853v-5.642a68.139 68.139 0 0 0 21.91-40.106l4.446-28.361a18.4 18.4 0 0 0 9.129-33.11 120.762 120.762 0 0 0 4.8-18.992h2.051a17.6 17.6 0 0 0 5.427-34.35 104.241 104.241 0 0 0 -20.092-57.574 94.814 94.814 0 0 0 -46.085-33.763l.655-6.318a6 6 0 0 0 -5.97-6.619h-45.579a6 6 0 0 0 -5.968 6.619l.655 6.319a94.761 94.761 0 0 0 -46.089 33.846 104.537 104.537 0 0 0 -20.073 57.487 17.6 17.6 0 0 0 5.417 34.353h1.546a93.469 93.469 0 0 0 4.446 14.525l2.274 5.717a18.4 18.4 0 0 0 10.642 31.86l4.446 28.361a68.09 68.09 0 0 0 19.131 37.479v10.351l-12.484 6.269a5.964 5.964 0 0 0 -2.1 1.055l-1.226.615a214.209 214.209 0 0 1 -46.75 16.626 83.807 83.807 0 0 0 -64.437 81.788v122.73a6 6 0 0 0 6 6h334.718a6 6 0 0 0 6-6v-122.73a83.807 83.807 0 0 0 -64.436-81.788zm-222.448 198.518h-47.834v-116.73a71.824 71.824 0 0 1 47.834-67.911zm81.661-462.716a76.223 76.223 0 0 1 11.785-4.221 6 6 0 0 0 4.426-6.417l-.482-4.646h32.27l-.482 4.646a6 6 0 0 0 4.426 6.417 76.684 76.684 0 0 1 11.785 4.215v8.2a48.57 48.57 0 0 1 -30.915 45.232 48.433 48.433 0 0 1 -32.813-45.932zm-32.676 26.631a85.277 85.277 0 0 1 20.676-19.907v.77a60.409 60.409 0 0 0 41.82 57.584l1.243.4a5.988 5.988 0 0 0 3.808-.032 60.569 60.569 0 0 0 40.857-57.261v-1.483a85.158 85.158 0 0 1 20.68 19.857 92.078 92.078 0 0 1 17.659 49.566h-164.4a92.4 92.4 0 0 1 17.657-49.494zm-24.307 72.709a5.608 5.608 0 1 1 0-11.215h177.694a5.608 5.608 0 1 1 0 11.215h-21.321a.192.192 0 0 0 -.024 0zm163.469 12c-.269 1.435-.572 2.864-.9 4.287v-4.287zm-145.414 0v12.383l-.913-2.294a81.433 81.433 0 0 1 -3.263-10.089zm17.155 78.605-5.227-33.342a6 6 0 0 0 -5.928-5.071h-3.313a6.424 6.424 0 1 1 0-12.847h3.313a6 6 0 0 0 6-6v-21.345h120.516v21.345a6 6 0 0 0 6 6h3.15a5.942 5.942 0 0 0 3.468 1.114c.092 0 .183-.017.275-.021a6.421 6.421 0 0 1 -3.58 11.754h-3.313a6 6 0 0 0 -5.927 5.071l-5.227 33.342a55.777 55.777 0 0 1 -110.207 0zm19.275 51.655v-2.772c1.284.8 2.594 1.567 3.937 2.283a67.669 67.669 0 0 0 63.782 0c.39-.208.773-.425 1.158-.64v24.093a47.01 47.01 0 0 1 -68.877 0v-19.739a5.957 5.957 0 0 0 0-3.225zm-16.9 13.921 4.9-2.46v13.778a6 6 0 0 0 1.423 3.877 59.007 59.007 0 0 0 90.031 0 6 6 0 0 0 1.423-3.879v-15.6l4.745 2.607v45.55a51.26 51.26 0 0 1 -102.52 0zm104.602 207.195h-96.706v-52.557a122.946 122.946 0 0 0 96.706.164zm48.185 0h-36.185v-61.866a6 6 0 0 0 -8.779-5.318 110.946 110.946 0 0 1 -103.129-.191 6 6 0 0 0 -8.8 5.308v62.067h-46.157v-188.011a228.155 228.155 0 0 0 38.265-13.321v38.016a63.26 63.26 0 0 0 126.52 0v-39.249a210.318 210.318 0 0 0 38.265 14.542zm59.834 0h-47.834v-184.64a71.822 71.822 0 0 1 47.834 67.91z"/><path d="m182.51 349.135a7.909 7.909 0 1 0 -7.908-7.908 7.917 7.917 0 0 0 7.908 7.908z"/><path d="m182.51 373.948a7.909 7.909 0 1 0 -7.908-7.909 7.917 7.917 0 0 0 7.908 7.909z"/><path d="m501.116 197.526-.244-.261a6 6 0 0 0 -9.812 1.553l-29.56 29.56-38.278-7.109-7.109-38.279 30.587-30.583a6 6 0 0 0 0-8.489l-.26-.26a6 6 0 0 0 -3.682-1.728 66.29 66.29 0 0 0 -42.172 121.686v158.184a47.817 47.817 0 1 0 59.516 0v-151.913a66.216 66.216 0 0 0 42.549-67.2 6 6 0 0 0 -1.535-5.161zm-34.963 261.658a35.817 35.817 0 1 1 -35.817-35.816 35.857 35.857 0 0 1 35.817 35.816zm-53.575-44.384v-145.075a66.208 66.208 0 0 0 35.516 3.453v141.622a47.645 47.645 0 0 0 -35.516 0zm62.368-168.472a54.295 54.295 0 1 1 -47.159-91.984l-22.393 22.393a6 6 0 0 0 -1.656 5.339l8.439 45.434a6 6 0 0 0 4.8 4.8l45.434 8.439a6 6 0 0 0 5.338-1.656l22.4-22.4a54.049 54.049 0 0 1 -15.203 29.636z"/><path d="m172.8 64.947h21.526a6 6 0 0 0 0-12h-21.526a6 6 0 0 0 0 12z"/><path d="m172.8 45.1h21.526a6 6 0 0 0 0-12h-21.526a6 6 0 0 0 0 12z"/></g></svg>