<svg id="Capa_1" enable-background="new 0 0 497 497" height="512" viewBox="0 0 497 497" width="512" xmlns="http://www.w3.org/2000/svg"><g><g><path d="m51.864 299.496h41.926v51.33h-41.926z" fill="#ffdfcf"/><path d="m78.865 299.495h14.93v51.341h-14.93z" fill="#ffcebf"/><path d="m145.65 359.22v82.57l-42.56 37.73h-92.25c-5.99 0-10.84-4.86-10.84-10.84v-26.89l7.91-16.61-7.91-16.61v-41.74c0-4.61 2.77-8.77 7.03-10.54l44.83-18.66h41.93l27.01 11.24z" fill="#fea613"/><path d="m145.65 359.22v82.57l-42.56 37.73h-15.02l32.73-130.65z" fill="#fe9901"/><path d="m80.33 362.85v116.67h-15v-116.67c0-4.15 3.35-7.5 7.5-7.5 4.14 0 7.5 3.35 7.5 7.5z" fill="#fe9901"/><path d="m97.358 312.7h-49.062c-14.597 0-26.43-11.833-26.43-26.43v-46.51l51.018-5.405 50.904 5.405v46.511c0 14.596-11.833 26.429-26.43 26.429z" fill="#ffdfcf"/><path d="m123.784 239.76v46.51c0 14.6-11.83 26.43-26.43 26.43h-14.36c14.6 0 26.43-11.83 26.43-26.43v-46.51l4.54-1.043z" fill="#ffcebf"/><path d="m129.471 212.817-56.587 8.686-56.701-8.686c0-24.267 19.672-43.939 43.939-43.939h25.41c24.267 0 43.939 19.672 43.939 43.939z" fill="#ffd15b"/><path d="m129.475 212.82-10.6 1.623-2.051-1.623c0-24.27-19.67-43.94-43.94-43.94h12.65c24.261 0 43.941 19.67 43.941 43.94z" fill="#ffc344"/><path d="m51.864 337.629 15.777 31.382c2.143 4.263 8.228 4.263 10.372 0l15.777-31.382z" fill="#0593fc"/><path d="m93.795 337.63-15.784 31.387c-2.144 4.262-8.229 4.262-10.371-.001l-2.275-4.526 13.5-26.86z" fill="#0181fa"/><path d="m0 408.57h145.65v33.22h-145.65z" fill="#eaf6ff"/><path d="m145.65 408.57v33.22h-48.13l8.32-33.22z" fill="#c8effe"/><path d="m65.33 408.57h15v33.22h-15z" fill="#c8effe"/><path d="m72.827 269.028c-4.143 0-7.5-3.358-7.5-7.5v-21.768c0-4.142 3.357-7.5 7.5-7.5s7.5 3.358 7.5 7.5v21.769c0 4.141-3.357 7.499-7.5 7.499z" fill="#ffcebf"/><path d="m72.827 297.391c-7.966 0-15.291-4.664-18.662-11.881-1.752-3.753-.131-8.216 3.622-9.969s8.217-.131 9.97 3.622c.915 1.96 2.905 3.228 5.07 3.228s4.155-1.267 5.07-3.228c1.753-3.752 6.216-5.375 9.97-3.622 3.753 1.752 5.374 6.216 3.622 9.969-3.371 7.218-10.696 11.881-18.662 11.881z" fill="#ffcebf"/><path d="m139.67 218.55v15.48c0 3.16-2.57 5.73-5.73 5.73h-122.23c-3.16 0-5.72-2.57-5.72-5.73v-15.48c0-3.17 2.56-5.73 5.72-5.73h40.04c4.66 0 8.43-3.78 8.43-8.43v-43.08c0-2.76 2.24-5 5.01-5h15.27c2.77 0 5.01 2.24 5.01 5v43.08c0 4.65 3.78 8.43 8.43 8.43h40.04c3.16 0 5.73 2.56 5.73 5.73z" fill="#fea613"/><g fill="#fe9901"><path d="m139.665 218.55v15.48c0 3.16-2.56 5.73-5.72 5.73h-14.44c3.17 0 5.73-2.57 5.73-5.73v-15.48c0-3.17-2.56-5.73-5.73-5.73h14.44c3.16 0 5.72 2.56 5.72 5.73z"/><path d="m93.9 212.82h-13.84c-4 0-7.24-3.24-7.24-7.23v-44.28c0-2.76-2.24-5-5-5h12.64c2.77 0 5.01 2.24 5.01 5v43.08c0 4.65 3.78 8.43 8.43 8.43z"/></g></g><g><path d="m403.21 305.127h41.926v40.07h-41.926z" fill="#ffdfcf"/><path d="m430.21 305.126h14.93v40.078h-14.93z" fill="#ffcebf"/><path d="m497 365.21v43.365l-6.21 16.605 6.21 16.61v27.499c0 5.65-4.581 10.231-10.231 10.231h-92.859l-42.56-37.73v-82.57l51.86-21.59 20.96 6.35 20.97-6.35 46.33 19.29c3.35 1.39 5.53 4.66 5.53 8.29z" fill="#fea613"/><path d="m497 365.21v43.365l-6.21 16.605 6.21 16.61v27.499c0 5.65-4.581 10.231-10.231 10.231h-13.295c5.077-1.395 8.596-6.011 8.596-11.276v-115.244l9.4 3.916c3.349 1.395 5.53 4.667 5.53 8.294z" fill="#fe9901"/><path d="m431.67 360.5v119.02h-15v-119.02c0-4.14 3.36-7.5 7.5-7.5 4.15 0 7.5 3.36 7.5 7.5z" fill="#fe9901"/><path d="m448.704 312.7h-49.062c-14.597 0-26.43-11.833-26.43-26.43v-46.51l51.018-5.024 50.904 5.024v46.511c0 14.596-11.833 26.429-26.43 26.429z" fill="#ffdfcf"/><path d="m475.13 239.76v46.51c0 14.6-11.83 26.43-26.43 26.43h-14.36c14.6 0 26.43-11.83 26.43-26.43v-46.51l3.552-1.067z" fill="#ffcebf"/><path d="m480.817 212.817-56.647 9.53-56.641-9.53c0-24.267 19.672-43.939 43.939-43.939h25.41c24.266 0 43.939 19.672 43.939 43.939z" fill="#ffd15b"/><path d="m480.82 212.82-9.97 1.674-2.68-1.674c0-24.27-19.67-43.94-43.94-43.94h12.65c24.26 0 43.94 19.67 43.94 43.94z" fill="#ffc344"/><path d="m403.21 337.629 15.198 30.23c2.382 4.739 9.147 4.739 11.53 0l15.198-30.23z" fill="#0593fc"/><path d="m445.14 337.63-15.205 30.235c-2.383 4.738-9.147 4.738-11.529-.001l-1.696-3.374 13.5-26.86z" fill="#0181fa"/><path d="m351.35 408.57h145.65v33.22h-145.65z" fill="#eaf6ff"/><path d="m416.67 408.57h15v33.22h-15z" fill="#c8effe"/><path d="m482.07 408.57h14.93v33.22h-14.93z" fill="#c8effe"/><path d="m424.173 269.028c-4.143 0-7.5-3.358-7.5-7.5v-21.768c0-4.142 3.357-7.5 7.5-7.5s7.5 3.358 7.5 7.5v21.769c0 4.141-3.358 7.499-7.5 7.499z" fill="#ffcebf"/><path d="m424.173 297.391c-7.966 0-15.291-4.664-18.662-11.881-1.752-3.753-.131-8.216 3.622-9.969s8.217-.131 9.97 3.622c.915 1.96 2.905 3.228 5.07 3.228s4.155-1.267 5.07-3.228c1.753-3.752 6.216-5.375 9.97-3.622 3.753 1.752 5.374 6.216 3.622 9.969-3.371 7.218-10.696 11.881-18.662 11.881z" fill="#ffcebf"/><path d="m491.01 218.55v15.48c0 3.16-2.56 5.73-5.72 5.73h-122.23c-3.16 0-5.73-2.57-5.73-5.73v-15.48c0-3.17 2.57-5.73 5.73-5.73h40.37c4.47 0 8.1-3.63 8.1-8.1v-43.41c0-2.76 2.24-5 5-5h15.28c2.77 0 5.01 2.24 5.01 5v43.41c0 4.47 3.62 8.1 8.09 8.1h40.38c3.16 0 5.72 2.56 5.72 5.73z" fill="#fea613"/><g fill="#fe9901"><path d="m491.01 218.55v15.48c0 3.16-2.56 5.73-5.72 5.73h-14.44c3.17 0 5.73-2.57 5.73-5.73v-15.48c0-3.17-2.56-5.73-5.73-5.73h14.44c3.16 0 5.72 2.56 5.72 5.73z"/><path d="m444.91 212.82h-13.48c-4.01 0-7.26-3.25-7.26-7.26v-44.25c0-2.76-2.24-5-5-5h12.64c2.77 0 5.01 2.24 5.01 5v43.41c0 4.47 3.62 8.1 8.09 8.1z"/></g></g><g><path d="m218.895 234.736h59.211v53.584h-59.211z" fill="#ffdfcf"/><path d="m259.8 234.739h18.31v53.583h-18.31z" fill="#ffcebf"/><path d="m320.47 191.938c17.052 0 30.875-13.823 30.875-30.875s-13.823-30.875-30.875-30.875l-5.937 30.875z" fill="#ffcebf"/><path d="m176.53 191.938c-17.052 0-30.875-13.823-30.875-30.875s13.823-30.875 30.875-30.875l5.389 30.875z" fill="#ffdfcf"/><path d="m181.92 161.06-5.39 30.88c-5.63 0-10.9-1.51-15.44-4.13v-53.49c4.54-2.63 9.81-4.13 15.44-4.13z" fill="#ffcebf"/><path d="m283.144 243.928h-69.288c-20.615 0-37.326-16.712-37.326-37.326v-76.413l71.97-8.452 71.97 8.452v76.413c0 20.614-16.711 37.326-37.326 37.326z" fill="#ffdfcf"/><path d="m320.47 130.19v76.41c0 20.62-16.71 37.33-37.33 37.33h-18.02c20.62 0 37.33-16.71 37.33-37.33v-76.41l4.687-1.567z" fill="#ffcebf"/><path d="m393.91 479.52h-63.36l-82.05-10.245-82.05 10.245h-63.36l37.59-150.04c1.51-6.06 4.38-11.6 8.31-16.27l33.49-13.53 36.41-20.55h59.22l43.29 23.93 26.61 10.15c3.93 4.67 6.8 10.21 8.31 16.27z" fill="#0593fc"/><path d="m393.91 479.52h-18.3l-37.59-150.04c-1.51-6.06-4.39-11.6-8.31-16.27-4.13-4.95-9.45-8.91-15.56-11.45l-54.35-22.63h18.31l43.29 23.93 26.61 10.15c3.93 4.67 6.8 10.21 8.31 16.27z" fill="#0181fa"/><path d="m348.01 313.21c-11.23 12.89-17.46 29.43-17.46 46.63v19.485l-3.695 25.473 3.695 21.432v53.29h-164.1v-53.29l8.148-23.45-8.148-23.455v-19.485c0-17.2-6.23-33.74-17.46-46.63 4.13-4.95 9.44-8.91 15.56-11.45l54.34-22.63 22.11 33.72 1.19 1.81c2.98 4.55 9.64 4.55 12.62 0l1.19-1.81 22.11-33.72 54.34 22.63c6.12 2.54 11.43 6.5 15.56 11.45z" fill="#fea613"/><path d="m348.01 313.21c-11.23 12.89-17.46 29.43-17.46 46.63v19.49l-3.695 25.468 3.695 21.432v53.29h-18.31v-119.68c0-15.05 4.77-29.595 13.486-41.631 2.315-3.196 1.849-7.627-1.182-10.154-3.094-2.58-6.591-4.712-10.403-6.294l-39.96-16.64 3.93-5.99 54.34 22.63c6.119 2.539 11.429 6.499 15.559 11.449z" fill="#fe9901"/><path d="m256 312.85v166.67h-15v-166.67l1.19 1.81c2.98 4.55 9.64 4.55 12.62 0z" fill="#fe9901"/><path d="m166.45 379.33h164.1v46.9h-164.1z" fill="#eaf6ff"/><path d="m241 379.33h15v46.9h-15z" fill="#c8effe"/><path d="m312.24 379.33h18.31v46.9h-18.31z" fill="#c8effe"/><path d="m248.5 185.184c-4.143 0-7.5-3.358-7.5-7.5v-24.133c0-4.142 3.357-7.5 7.5-7.5s7.5 3.358 7.5 7.5v24.133c0 4.142-3.357 7.5-7.5 7.5z" fill="#ffcebf"/><path d="m248.5 219.215c-10.055 0-19.3-5.886-23.555-14.995-1.752-3.753-.131-8.216 3.622-9.969 3.755-1.754 8.217-.131 9.97 3.622 1.799 3.853 5.71 6.343 9.963 6.343s8.164-2.49 9.963-6.343c1.753-3.753 6.218-5.374 9.97-3.622 3.753 1.753 5.374 6.216 3.622 9.969-4.255 9.109-13.5 14.995-23.555 14.995z" fill="#ffcebf"/><path d="m328.5 97.29-12.64 1.36h-.07l-68.17 7.32-79.12-8.68c0-13.72 4.46-26.41 12.01-36.69l8.54-1.55 1.93-9.55c10.74-8.91 24.53-14.26 39.58-14.26h35.88c15.05 0 28.84 5.35 39.58 14.26l2.98 7.89 7.55 3.29c7.51 10.26 11.95 22.92 11.95 36.61z" fill="#ffd15b"/><path d="m328.5 97.29-12.64 1.36h-.07l-4.16-1.36c0-34.27-27.78-62.05-62.05-62.05h16.86c15.05 0 28.84 5.35 39.58 14.26l2.98 7.89 7.55 3.29c7.51 10.26 11.95 22.92 11.95 36.61z" fill="#ffc344"/><path d="m342.9 105.38v16.72c0 4.47-3.62 8.09-8.09 8.09h-172.62c-4.47 0-8.09-3.62-8.09-8.09v-16.72c0-4.47 3.62-8.09 8.09-8.09h60.42c4.43 0 8.03-3.6 8.03-8.03v-64.71c0-3.9 3.16-7.07 7.07-7.07h21.58c3.9 0 7.07 3.17 7.07 7.07v64.71c0 4.43 3.6 8.03 8.03 8.03h60.42c4.47 0 8.09 3.62 8.09 8.09z" fill="#fea613"/><path d="m274.39 97.29h-18.57c-3.45 0-6.24-2.79-6.24-6.24v-66.5c0-3.9-3.17-7.07-7.07-7.07h16.78c3.9 0 7.07 3.17 7.07 7.07v64.71c0 4.43 3.6 8.03 8.03 8.03z" fill="#fe9901"/><path d="m206.84 69.23c-1.45 2.15-3.82 3.31-6.23 3.31-1.44 0-2.89-.42-4.18-1.28l-15.92-10.66c1.87-2.55 3.93-4.96 6.17-7.19 1.37-1.37 2.81-2.67 4.3-3.91l13.83 9.32c3.44 2.31 4.34 6.97 2.03 10.41z" fill="#fea613"/><path d="m316.55 60.68-11.95 7.91-4.03 2.67c-1.28.86-2.74 1.28-4.18 1.28-2.41 0-4.78-1.16-6.23-3.31-2.31-3.44-1.41-8.1 2.03-10.41l3.88-2.62 9.95-6.7c3.96 3.28 7.49 7.03 10.53 11.18z" fill="#fea613"/><g fill="#fe9901"><path d="m316.55 60.68-11.95 7.91c-2.33-4.48-5.2-8.64-8.53-12.39l9.95-6.7c3.96 3.28 7.49 7.03 10.53 11.18z"/><path d="m342.9 105.38v16.72c0 4.47-3.62 8.09-8.09 8.09h-16.76c4.47 0 8.09-3.62 8.09-8.09v-16.72c0-4.47-3.62-8.09-8.09-8.09h16.76c4.47 0 8.09 3.62 8.09 8.09z"/></g></g></g></svg>